<svg version="1.1" preserveAspectRatio="none" xmlns="http://www.w3.org/2000/svg" width="500" height="500" viewBox="0 0 500 500"><rect width="100%" height="100%" fill="#C8E3DF" fill-opacity="1"/><svg viewBox="356.3357 356.8142 538.0226 95.4" width="333" height="59.04621850457583" x="83.5px" y="220.4769px" xmlns="http://www.w3.org/2000/svg" xmlns:xlink="http://www.w3.org/1999/xlink" preserveAspectRatio="none"><defs></defs><style>.companyName {fill:#559092;fill-opacity:1;}.icon1 {fill:#559092;fill-opacity:1;}.icon2 {fill:#FBFBFB;fill-opacity:1;}.icon3 {fill:#185759;fill-opacity:1;}.icon3-str {stroke:#185759;stroke-opacity:1;}.text {fill:#559092;fill-opacity:1;}</style><g opacity="1" transform="rotate(0 356.3357 356.8142)">
<svg width="121.7873" height="95.4" x="356.3357" y="356.8142" version="1.1" preserveAspectRatio="none" viewBox="10 29.49999237060547 180 141">
  <g transform="matrix(1 0 0 1 0 0)"><g><path opacity=".3" d="M128.735 165.647c0 2.68-12.03 4.853-26.868 4.853-14.839 0-26.868-2.173-26.868-4.853 0-2.68 12.03-4.853 26.868-4.853 14.839 0 26.868 2.173 26.868 4.853z"></path><path d="M153.736 125.519c0 22.634-18.319 40.982-40.916 40.982-22.597 0-40.916-18.348-40.916-40.982s18.319-40.982 40.916-40.982c22.597 0 40.916 18.348 40.916 40.982z" data-color="1" class="icon1"></path><path d="M84.3 135.989a14.337 14.337 0 0 1-1.724-1.007 37.31 37.31 0 0 1 2.824-2.669c.902-.763-.399-2.055-1.295-1.298a37.104 37.104 0 0 0-2.98 2.846 14.388 14.388 0 0 1-1.593-1.615c-.754-.91-2.044.395-1.295 1.298a15.34 15.34 0 0 0 1.669 1.693c-.258.3-.538.578-.787.887-.733.911.555 2.217 1.295 1.298.296-.367.627-.7.935-1.055.646.446 1.315.861 2.027 1.206 1.056.513 1.986-1.069.924-1.584z" data-color="2" class="icon2"></path><path d="M98.014 136.045c-1.069-.556-2.097-1.176-3.113-1.814l2.369-1.964c.909-.754-.393-2.046-1.295-1.298l-2.654 2.2c-.846-.585-1.696-1.165-2.499-1.815-.909-.736-2.213.555-1.296 1.297.757.612 1.557 1.157 2.345 1.719l-1.559 1.292c-.909.754.393 2.046 1.295 1.298l1.803-1.495a43.8 43.8 0 0 0 3.678 2.164c1.046.544 1.974-1.039.926-1.584z" data-color="2" class="icon2"></path><path d="M102.846 137.563l1.939-1.615c.462.386.943.753 1.452 1.089.987.652 1.906-.937.925-1.585-.329-.217-.64-.455-.946-.697l2.973-2.476c.907-.756-.395-2.048-1.296-1.298l-3.044 2.536a13.739 13.739 0 0 1-1.627-2.035c-.641-.986-2.228-.067-1.582.926a16.028 16.028 0 0 0 1.809 2.274l-1.899 1.582c-.907.757.395 2.049 1.296 1.299z" data-color="2" class="icon2"></path><path d="M115.904 136.253l1.963-1.651 1.586 1.407c.88.78 2.18-.513 1.295-1.298l-1.466-1.3 2.429-2.044c.904-.761-.398-2.053-1.295-1.298l-2.515 2.116-1.367-1.212c-.88-.78-2.18.513-1.296 1.298l1.247 1.106-1.877 1.579c-.904.76.398 2.052 1.296 1.297z" data-color="2" class="icon2"></path><path d="M129.586 132.658l-1.652 1.571c-.857.815.44 2.111 1.295 1.298l1.752-1.665c.697.561 1.394 1.123 2.143 1.62.986.654 1.904-.934.925-1.584-.606-.402-1.159-.865-1.724-1.313l2.228-2.118c.857-.815-.44-2.111-1.295-1.298l-2.348 2.232c-.663-.605-1.318-1.22-1.924-1.893-.791-.879-2.083.422-1.296 1.298.593.659 1.245 1.255 1.896 1.852z" data-color="2" class="icon2"></path><path d="M144.264 129.794a45.794 45.794 0 0 1-3.101 2.844c-.709-.728-1.407-1.467-2.055-2.256-.75-.912-2.039.392-1.295 1.298.605.736 1.259 1.422 1.917 2.105-.286.221-.554.463-.846.677-.942.691-.029 2.284.925 1.584.423-.311.818-.654 1.23-.977.649.608 1.296 1.219 1.991 1.78.91.734 2.214-.557 1.295-1.298-.64-.516-1.231-1.082-1.832-1.638a46.419 46.419 0 0 0 3.066-2.822c.83-.84-.465-2.139-1.295-1.297z" data-color="2" class="icon2"></path><path d="M89.798 140.374a22.02 22.02 0 0 0-1.755 1.436.936.936 0 0 0-.298.187c-.148.141-.265.304-.403.452l-.134-.146a.773.773 0 0 0-.855-.233 3.92 3.92 0 0 1-.533-1.554c-.134-1.159-1.968-1.173-1.832 0 .168 1.449.753 2.729 1.783 3.75-.648.798-1.259 1.628-1.786 2.531-.596 1.022.987 1.946 1.582.926.349-.597.73-1.169 1.134-1.722a.77.77 0 0 0 .651-.445c.042-.081.098-.149.142-.228l1.778 1.943c.799.872 2.091-.428 1.296-1.298l-1.972-2.154a18.517 18.517 0 0 1 2.127-1.86c.94-.691.027-2.284-.925-1.585z" data-color="2" class="icon2"></path><path d="M105.084 145.448l-1.343-.827 1.29-.887c.966-.664.051-2.255-.925-1.584l-2.069 1.422-1.862-1.146c-1.007-.62-1.929.966-.925 1.584l1.134.698-2.424 1.667c-.966.664-.051 2.255.925 1.585a8889.4 8889.4 0 0 0 3.203-2.202l2.071 1.275c1.008.62 1.929-.967.925-1.585z" data-color="2" class="icon2"></path><path d="M113.038 145.447l-1.192 1.116c-.863.808.435 2.104 1.296 1.298l1.377-1.289c.469.334.924.687 1.417.988 1.009.617 1.931-.97.925-1.584-.341-.209-.649-.457-.976-.682l2.465-2.309c.863-.808-.435-2.104-1.295-1.297l-2.676 2.506a22.568 22.568 0 0 1-1.795-1.613c-.83-.841-2.125.456-1.295 1.298.55.557 1.147 1.066 1.749 1.568z" data-color="2" class="icon2"></path><path d="M131.889 147.127c1.02.596 1.944-.989.925-1.584l-1.656-.968c.726-.622 1.456-1.238 2.139-1.91.843-.829-.453-2.126-1.295-1.298a40.389 40.389 0 0 1-2.501 2.24l-2.838-1.658c-1.021-.596-1.944.989-.925 1.584l2.195 1.282c-.602.453-1.19.923-1.82 1.343-.977.651-.061 2.241.925 1.584.902-.601 1.761-1.258 2.614-1.923.745.437 1.491.872 2.237 1.308z" data-color="2" class="icon2"></path><path d="M101.462 154.297a12.217 12.217 0 0 1-1.561-.791l.132-.119c.878-.792-.421-2.086-1.295-1.298l-.389.351a13.81 13.81 0 0 1-1.073-.953c-.837-.833-2.133.464-1.295 1.297.319.318.654.611.995.894l-1.291 1.164c-.878.792.421 2.086 1.296 1.297l1.51-1.361c.783.497 1.609.929 2.486 1.288 1.088.447 1.563-1.328.485-1.769z" data-color="2" class="icon2"></path><path d="M122.718 150.69a48.303 48.303 0 0 0-3.553 2.53c-.52-.346-1.063-.656-1.575-1.015-.968-.679-1.885.912-.925 1.585.336.236.695.436 1.035.666-.517.437-1.053.851-1.552 1.31-.87.801.428 2.096 1.295 1.298.6-.552 1.237-1.055 1.864-1.573.852.548 1.681 1.13 2.554 1.645 1.018.601 1.941-.985.925-1.584-.677-.399-1.316-.856-1.98-1.275a45.22 45.22 0 0 1 2.837-2.002c.989-.637.071-2.226-.925-1.585z" data-color="2" class="icon2"></path><path d="M113.661 159.252c-.561.029-2.077-.988-2.978-1.615.451-.359.897-.723 1.378-1.047.973-.656.057-2.246-.925-1.585-.697.469-1.362.979-2.006 1.512a28.917 28.917 0 0 1-2.717-2.254c-.857-.811-2.154.484-1.296 1.298a39.48 39.48 0 0 0 2.649 2.212c-.259.25-.536.478-.785.741-.81.857.483 2.157 1.295 1.298.315-.333.659-.63.99-.942 2.663 1.845 5.634 3.3 5.942.938.122-.93-1.001-1.101-1.547-.556z" data-color="2" class="icon2"></path><path d="M143.351 144.483l-1.416 1.235a7.126 7.126 0 0 1-1.156-1.698c-.51-1.064-2.09-.134-1.582.926.351.731.82 1.385 1.352 1.979l-1.921 1.675c-.891.777.409 2.07 1.295 1.297l1.98-1.727c.406.292.836.552 1.293.77 1.059.505 1.99-1.076.925-1.585-.274-.131-.522-.29-.77-.448l1.295-1.129c.892-.774-.409-2.067-1.295-1.295z" data-color="2" class="icon2"></path><path d="M135.98 154.518a9.445 9.445 0 0 1-2.164-.723l.745-.687c.87-.801-.428-2.096-1.295-1.297l-1.103 1.016a9.282 9.282 0 0 1-1.076-.958c-.821-.851-2.116.448-1.295 1.298.319.33.665.623 1.017.908l-1.518 1.399c-.87.801.429 2.096 1.295 1.298l1.772-1.633c.971.539 2.023.93 3.136 1.149 1.15.226 1.643-1.543.486-1.77z" data-color="2" class="icon2"></path><path d="M89.296 76.186c3.851-1.62-5.219-24.417.399-30.171 11.268 3.337 26.294 33.352 25.344 46.487-9.664 8.611-21.892-17.936-25.743-16.316z" data-color="3" class="icon3"></path><path d="M89.296 76.186c3.851-1.62-5.219-24.417.399-30.171 11.268 3.337 26.294 33.352 25.344 46.487-9.664 8.611-21.892-17.936-25.743-16.316z" opacity=".3"></path><path d="M112.972 117.63c10.851-1.321 17.315 8.35 41.761 4.539 30.949-12.6 32.53-38.299 35.267-46.334-12.184 5.019-69.313 32.259-77.028 41.795z" data-color="3" class="icon3"></path><path d="M112.972 117.63c10.851-1.321 17.315 8.35 41.761 4.539 30.949-12.6 32.53-38.299 35.267-46.334-12.184 5.019-69.313 32.259-77.028 41.795z" opacity=".1" data-color="3" class="icon3"></path><path d="M69.727 66.381c-1.591 5.144-21.199-10.215-33.62-14.402 1.325 10.469 15.385 39.841 39.531 51.038 16.861-3.948-7.502-31.492-5.911-36.636z" data-color="3" class="icon3"></path><path d="M84.27 95.888C78.936 95.539 21.2 73.783 10 77.211c16.989 8.895 46.141 36.45 83.137 39.216 20.173-12.19-14.201-20.888-8.867-20.539z" data-color="4" class="icon1"></path><path d="M84.69 73.603c-3.425 1.1-19.846-29.509-32.552-33.551-4.007 12.748 21.659 57.201 42.599 70.231 15.243-2.883-13.473-35.581-10.047-36.68z" data-color="5" class="icon2"></path><path d="M87.892 109.595c-12.639 1.414-45.352-1.585-51.327 7.528 12.007 9.71 59.032 17.655 72.366 1.376-3.669-12.316-15.49-9.062-17.51-9.004" data-color="3" class="icon3"></path><path d="M140.992 43.721c-9.116 4.555-24.986 23.26-29.67 17.416 4.684 5.844-.381 26.865-1.108 40.522 9.411-2.785 17.009-12.208 27.156-17.208 1.432-9.496 8.256-28.201 3.622-40.73z" data-color="5" class="icon2"></path><path d="M140.992 43.721c-9.116 4.555-24.986 23.26-29.67 17.416 4.684 5.844-.381 26.865-1.108 40.522 9.411-2.785 17.009-12.208 27.156-17.208 1.432-9.496 8.256-28.201 3.622-40.73z" opacity=".4"></path><path d="M119.477 85.774c4.863-.306 35.48-38.323 53.105-44.343 1.19 11.094-17.848 52.011-49.78 66.547-24.514-1.489 1.538-22.51-3.325-22.204z" data-color="3" class="icon3"></path><path d="M87.892 109.595c-12.639 1.414-45.352-1.585-51.327 7.528 12.007 9.71 59.032 17.655 72.366 1.376-3.669-12.316-15.49-9.062-17.51-9.004" opacity=".2"></path><path d="M115.768 107.503c6.955-4.118 49.15-48.296 71.394-50.45-4.876 13.026-21.381 60.466-70.285 62.662-37.936-13.068 4.76-15.605-1.109-12.212z" data-color="4" class="icon1"></path><path d="M107.994 129.081c1.265-13.517-9.59-16.054-16.072-28.865 7.205-19.807 13.886-57.065 21.59-70.716 6.77 13.65 12.753 47.647 17.204 62.389-1.174 17.435-10.603 25.849-22.722 37.192z" data-color="5" class="icon2"></path><path d="M74.122 40.51c-14.111 45.043 28.284 77.792 39.389 80.741-3.145-16.721-28.675-72.019-39.389-80.741z" data-color="3" class="icon3"></path><path d="M91.069 125.839c17.405 4.588 21.319 10.255 27.88 13.289 3.807-4.016 16.998-12.084 20.669-16.042-9.064-12.862-36.264-14.094-48.549 2.753z" data-color="4" class="icon1"></path><path d="M112.859 100.774c-.039-.37-.622-.374-.583 0l1.227 11.536c.039.37.622.374.583 0l-1.227-11.536z" data-color="6" class="icon3"></path><path d="M116.61 101.361a130.439 130.439 0 0 1-.85 8.758c-.049.371.535.368.583 0 .382-2.91.665-5.829.85-8.758.023-.375-.56-.373-.583 0z" data-color="6" class="icon3"></path><path d="M119.812 101.719a79.393 79.393 0 0 1-2.682 9.247c-.111.31.383.519.533.225l.389-.769a.278.278 0 0 0-.021-.297 79.547 79.547 0 0 0 2.343-8.251c.082-.366-.48-.522-.562-.155z" data-color="6" class="icon3"></path><path d="M124.185 100.989a41.175 41.175 0 0 1-3.997 8.86c-.194.323.31.616.503.295a41.765 41.765 0 0 0 4.056-9c.114-.359-.449-.513-.562-.155z" data-color="6" class="icon3"></path><path d="M99.418 113.784a87.745 87.745 0 0 0-8.011-.182c-.374.009-.376.592 0 .584a87.38 87.38 0 0 1 8.011.182c.374.026.373-.558 0-.584z" data-color="6" class="icon3"></path><path d="M98.812 115.793l-.413.014c-.004 0-.007.002-.011.003l-7.273.279c-.374.014-.376.598 0 .584l7.697-.295c.374-.015.376-.597 0-.585z" data-color="6" class="icon3"></path><path d="M96.438 117.487a35.26 35.26 0 0 1-8.817.197c-.373-.038-.37.546 0 .584a35.88 35.88 0 0 0 8.972-.218c.37-.056.213-.618-.155-.563z" data-color="6" class="icon3"></path><path d="M132.412 103.179l-5.707 5.225c-.277.254.136.666.412.413l5.707-5.225c.277-.254-.136-.666-.412-.413z" data-color="6" class="icon3"></path><path d="M137.146 104.752a57.449 57.449 0 0 1-10.589 5.314c-.283.107-.275.603.077.573l.611-.051c.169-.014.257-.143.273-.276a58.149 58.149 0 0 0 9.921-5.056c.317-.201.025-.706-.293-.504z" data-color="6" class="icon3"></path><path d="M136.79 108.692l-7.886 2.568c-.355.116-.203.679.155.563l7.886-2.568c.355-.116.203-.68-.155-.563z" data-color="6" class="icon3"></path><path d="M139.096 110.377a27.792 27.792 0 0 1-6.666 1.786c-.37.051-.212.614.155.563a27.839 27.839 0 0 0 6.666-1.786c.343-.14.193-.704-.155-.563z" data-color="6" class="icon3"></path><path d="M107.849 109.959l-.055-.082c-.122-.181-.342-.154-.464-.04a1.154 1.154 0 0 0-.357-.83 52.373 52.373 0 0 1-1.518-2.503 56.59 56.59 0 0 1-1.847-3.54c-.163-.338-.665-.043-.503.295a56.841 56.841 0 0 0 2.247 4.231c.555.941 1.129 2.308 2.019 2.959.098.072.274.043.353-.046l.081-.09c.081-.093.118-.244.044-.354z" data-color="6" class="icon3"></path><path d="M105.618 111.259a107.695 107.695 0 0 1-4.056-6.395c-.19-.324-.694-.03-.503.295a107.931 107.931 0 0 0 3.76 5.945.263.263 0 0 0 .077.24l.265.269c.226.23.648-.074.457-.354z" data-color="6" class="icon3"></path><path d="M103.373 110.846c-.404.547-5.561-4.708-6.069-5.321-.24-.289-.65.126-.412.413.712.859 5.869 6.711 6.984 5.203.223-.303-.282-.594-.503-.295z" data-color="6" class="icon3"></path><path d="M150.428 113.476l-10.974 3.426c-.357.111-.205.675.155.563l10.974-3.426c.357-.112.205-.675-.155-.563z" data-color="6" class="icon3"></path><path d="M149.887 116.497c-2.564.354-5.082.89-7.568 1.61-.36.104-.207.668.155.563a53.396 53.396 0 0 1 7.568-1.61c.369-.051.212-.613-.155-.563z" data-color="6" class="icon3"></path><path d="M149.776 119.43l-6.992.219c-.374.012-.376.595 0 .584l6.992-.219c.374-.013.375-.596 0-.584z" data-color="6" class="icon3"></path><path d="M86.492 106.345a16.843 16.843 0 0 1-5.657-3.538c-.273-.257-.686.155-.412.413a17.56 17.56 0 0 0 5.104 3.36 14.13 14.13 0 0 1-4.744-1.496c-.332-.173-.627.33-.294.504a14.947 14.947 0 0 0 5.191 1.601c.276.033.344-.281.211-.462.149.061.297.124.448.182.349.131.501-.433.153-.564z" data-color="6" class="icon3"></path><path d="M69.688 87.226c-2.125-1.074-3.738-2.849-4.576-5.084-.131-.348-.694-.198-.562.155.89 2.376 2.579 4.288 4.844 5.433.334.169.63-.334.294-.504z" data-color="6" class="icon3"></path><path d="M69.895 88.563a18.676 18.676 0 0 1-5.583-4.228c-.252-.279-.663.135-.412.413a19.065 19.065 0 0 0 5.701 4.319c.335.166.63-.337.294-.504z" data-color="6" class="icon3"></path><path d="M98.028 70.134c-.03-.372-.613-.375-.583 0l.39 4.864c.03.372.613.375.583 0l-.39-4.864z" data-color="6" class="icon3"></path><path d="M97.343 74.551a28.956 28.956 0 0 1-.671-3.834c-.039-.37-.622-.374-.583 0 .142 1.346.37 2.675.692 3.99.089.364.651.21.562-.156z" data-color="6" class="icon3"></path><path d="M137.078 82.622a72.487 72.487 0 0 1-5.101 6.062c-.257.274.155.687.412.413a73.959 73.959 0 0 0 5.192-6.18c.226-.3-.28-.591-.503-.295z" data-color="6" class="icon3"></path><path d="M134.178 82.244l-3.276 4.881c-.21.313.295.605.503.295l3.276-4.881c.21-.313-.294-.606-.503-.295z" data-color="6" class="icon3"></path><path d="M132.498 80.453a19.156 19.156 0 0 0-2.259 3.319c-.177.331.326.626.503.295a18.4 18.4 0 0 1 2.168-3.201c.241-.286-.169-.701-.412-.413z" data-color="6" class="icon3"></path></g></g>
</svg>
</g><g opacity="1" transform="rotate(0 498.123 418.7142)">
<svg width="252.0998" height="17.6" x="498.123" y="418.7142" version="1.1" preserveAspectRatio="none" viewBox="4.2 -30.28 548.3199999999999 38.28">
  <g transform="matrix(1 0 0 1 0 0)" class="text"><path id="id-6izo4zJp23" d="M23.96-24.52L8.20-24.52L8.20-14.76L22.24-14.76L22.24-11.32L8.20-11.32L8.20 0L4.20 0L4.20-28L23.96-28L23.96-24.52Z M32.64 0L32.64-21.20L36.48-21.20L36.48 0L32.64 0ZM34.56-25.28Q33.44-25.28 32.70-26Q31.96-26.72 31.96-27.76L31.96-27.76Q31.96-28.80 32.70-29.54Q33.44-30.28 34.56-30.28L34.56-30.28Q35.68-30.28 36.42-29.58Q37.16-28.88 37.16-27.84L37.16-27.84Q37.16-26.76 36.42-26.02Q35.68-25.28 34.56-25.28L34.56-25.28Z M59.12-21.40Q63.16-21.40 65.54-19.06Q67.92-16.72 67.92-12.20L67.92-12.20L67.92 0L64.08 0L64.08-11.76Q64.08-14.84 62.60-16.40Q61.12-17.96 58.36-17.96L58.36-17.96Q55.24-17.96 53.44-16.14Q51.64-14.32 51.64-10.92L51.64-10.92L51.64 0L47.80 0L47.80-21.20L51.48-21.20L51.48-18Q52.64-19.64 54.62-20.52Q56.60-21.40 59.12-21.40L59.12-21.40Z M95.32-29.68L99.16-29.68L99.16 0L95.48 0L95.48-3.36Q94.20-1.60 92.24-0.68Q90.28 0.24 87.92 0.24L87.92 0.24Q84.84 0.24 82.40-1.12Q79.96-2.48 78.58-4.94Q77.20-7.40 77.20-10.60L77.20-10.60Q77.20-13.80 78.58-16.24Q79.96-18.68 82.40-20.04Q84.84-21.40 87.92-21.40L87.92-21.40Q90.20-21.40 92.12-20.54Q94.04-19.68 95.32-18L95.32-18L95.32-29.68ZM88.24-3.12Q90.24-3.12 91.88-4.06Q93.52-5 94.44-6.70Q95.36-8.40 95.36-10.60L95.36-10.60Q95.36-12.80 94.44-14.50Q93.52-16.20 91.88-17.12Q90.24-18.04 88.24-18.04L88.24-18.04Q86.20-18.04 84.58-17.12Q82.96-16.20 82.02-14.50Q81.08-12.80 81.08-10.60L81.08-10.60Q81.08-8.40 82.02-6.70Q82.96-5 84.58-4.06Q86.20-3.12 88.24-3.12L88.24-3.12Z M140.20-21.20L143.96-21.20L133.68 2.12Q132.32 5.36 130.50 6.68Q128.68 8 126.12 8L126.12 8Q124.56 8 123.10 7.50Q121.64 7 120.68 6.04L120.68 6.04L122.32 3.16Q123.96 4.72 126.12 4.72L126.12 4.72Q127.52 4.72 128.46 3.98Q129.40 3.24 130.16 1.44L130.16 1.44L130.84-0.04L121.48-21.20L125.48-21.20L132.88-4.24L140.20-21.20Z M160.04 0.24Q156.88 0.24 154.36-1.16Q151.84-2.56 150.42-5.02Q149.00-7.48 149.00-10.60L149.00-10.60Q149.00-13.72 150.42-16.18Q151.84-18.64 154.36-20.02Q156.88-21.40 160.04-21.40L160.04-21.40Q163.20-21.40 165.70-20.02Q168.20-18.64 169.62-16.18Q171.04-13.72 171.04-10.60L171.04-10.60Q171.04-7.48 169.62-5.02Q168.20-2.56 165.70-1.16Q163.20 0.24 160.04 0.24L160.04 0.24ZM160.04-3.12Q162.08-3.12 163.70-4.06Q165.32-5 166.24-6.70Q167.16-8.40 167.16-10.60L167.16-10.60Q167.16-12.80 166.24-14.50Q165.32-16.20 163.70-17.12Q162.08-18.04 160.04-18.04L160.04-18.04Q158.00-18.04 156.38-17.12Q154.76-16.20 153.82-14.50Q152.88-12.80 152.88-10.60L152.88-10.60Q152.88-8.40 153.82-6.70Q154.76-5 156.38-4.06Q158.00-3.12 160.04-3.12L160.04-3.12Z M196.28-21.20L200.12-21.20L200.12 0L196.48 0L196.48-3.20Q195.32-1.56 193.42-0.66Q191.52 0.24 189.28 0.24L189.28 0.24Q185.04 0.24 182.60-2.10Q180.16-4.44 180.16-9L180.16-9L180.16-21.20L184.00-21.20L184.00-9.44Q184.00-6.36 185.48-4.78Q186.96-3.20 189.72-3.20L189.72-3.20Q192.76-3.20 194.52-5.04Q196.28-6.88 196.28-10.24L196.28-10.24L196.28-21.20Z M215.12-17.64Q216.12-19.48 218.08-20.44Q220.04-21.40 222.84-21.40L222.84-21.40L222.84-17.68Q222.52-17.72 221.96-17.72L221.96-17.72Q218.84-17.72 217.06-15.86Q215.28-14 215.28-10.56L215.28-10.56L215.28 0L211.44 0L211.44-21.20L215.12-21.20L215.12-17.64Z M257.84-21.40Q260.92-21.40 263.36-20.04Q265.80-18.68 267.18-16.24Q268.56-13.80 268.56-10.60L268.56-10.60Q268.56-7.40 267.18-4.94Q265.80-2.48 263.36-1.12Q260.92 0.24 257.84 0.24L257.84 0.24Q255.56 0.24 253.66-0.64Q251.76-1.52 250.44-3.20L250.44-3.20L250.44 7.76L246.60 7.76L246.60-21.20L250.28-21.20L250.28-17.84Q251.56-19.60 253.52-20.50Q255.48-21.40 257.84-21.40L257.84-21.40ZM257.52-3.12Q259.56-3.12 261.18-4.06Q262.80-5 263.74-6.70Q264.68-8.40 264.68-10.60L264.68-10.60Q264.68-12.80 263.74-14.50Q262.80-16.20 261.18-17.12Q259.56-18.04 257.52-18.04L257.52-18.04Q255.52-18.04 253.90-17.10Q252.28-16.16 251.34-14.48Q250.40-12.80 250.40-10.60L250.40-10.60Q250.40-8.40 251.32-6.70Q252.24-5 253.88-4.06Q255.52-3.12 257.52-3.12L257.52-3.12Z M281.56-17.64Q282.56-19.48 284.52-20.44Q286.48-21.40 289.28-21.40L289.28-21.40L289.28-17.68Q288.96-17.72 288.40-17.72L288.40-17.72Q285.28-17.72 283.50-15.86Q281.72-14 281.72-10.56L281.72-10.56L281.72 0L277.88 0L277.88-21.20L281.56-21.20L281.56-17.64Z M316.96-10.48Q316.96-10.04 316.88-9.32L316.88-9.32L299.68-9.32Q300.04-6.52 302.14-4.82Q304.24-3.12 307.36-3.12L307.36-3.12Q311.16-3.12 313.48-5.68L313.48-5.68L315.60-3.20Q314.16-1.52 312.02-0.64Q309.88 0.24 307.24 0.24L307.24 0.24Q303.88 0.24 301.28-1.14Q298.68-2.52 297.26-5Q295.84-7.48 295.84-10.60L295.84-10.60Q295.84-13.68 297.22-16.16Q298.60-18.64 301.02-20.02Q303.44-21.40 306.48-21.40L306.48-21.40Q309.52-21.40 311.90-20.02Q314.28-18.64 315.62-16.16Q316.96-13.68 316.96-10.48L316.96-10.48ZM306.48-18.16Q303.72-18.16 301.86-16.48Q300.00-14.80 299.68-12.08L299.68-12.08L313.28-12.08Q312.96-14.76 311.10-16.46Q309.24-18.16 306.48-18.16L306.48-18.16Z M334.04-26.76Q330.60-26.76 330.60-23.04L330.60-23.04L330.60-21.20L336.76-21.20L336.76-18.04L330.68-18.04L330.68 0L326.84 0L326.84-18.04L323.24-18.04L323.24-21.20L326.84-21.20L326.84-23.08Q326.84-26.24 328.68-28.08Q330.52-29.92 333.84-29.92L333.84-29.92Q335.12-29.92 336.24-29.60Q337.36-29.28 338.16-28.68L338.16-28.68L337-25.76Q335.68-26.76 334.04-26.76L334.04-26.76Z M363.24-10.48Q363.24-10.04 363.16-9.32L363.16-9.32L345.96-9.32Q346.32-6.52 348.42-4.82Q350.52-3.12 353.64-3.12L353.64-3.12Q357.44-3.12 359.76-5.68L359.76-5.68L361.88-3.20Q360.44-1.52 358.30-0.64Q356.16 0.24 353.52 0.24L353.52 0.24Q350.16 0.24 347.56-1.14Q344.96-2.52 343.54-5Q342.12-7.48 342.12-10.60L342.12-10.60Q342.12-13.68 343.50-16.16Q344.88-18.64 347.30-20.02Q349.72-21.40 352.76-21.40L352.76-21.40Q355.80-21.40 358.18-20.02Q360.56-18.64 361.90-16.16Q363.24-13.68 363.24-10.48L363.24-10.48ZM352.76-18.16Q350-18.16 348.14-16.48Q346.28-14.80 345.96-12.08L345.96-12.08L359.56-12.08Q359.24-14.76 357.38-16.46Q355.52-18.16 352.76-18.16L352.76-18.16Z M381.80 0.24Q378.56 0.24 376.02-1.16Q373.48-2.56 372.04-5.02Q370.60-7.48 370.60-10.60L370.60-10.60Q370.60-13.72 372.04-16.18Q373.48-18.64 376.02-20.02Q378.56-21.40 381.80-21.40L381.80-21.40Q384.68-21.40 386.94-20.24Q389.20-19.08 390.44-16.88L390.44-16.88L387.52-15Q386.52-16.52 385.04-17.28Q383.56-18.04 381.76-18.04L381.76-18.04Q379.68-18.04 378.02-17.12Q376.36-16.20 375.42-14.50Q374.48-12.80 374.48-10.60L374.48-10.60Q374.48-8.36 375.42-6.66Q376.36-4.96 378.02-4.04Q379.68-3.12 381.76-3.12L381.76-3.12Q383.56-3.12 385.04-3.88Q386.52-4.64 387.52-6.16L387.52-6.16L390.44-4.32Q389.20-2.12 386.94-0.94Q384.68 0.24 381.80 0.24L381.80 0.24Z M410.40-4L411.60-1.24Q410.76-0.52 409.52-0.14Q408.28 0.24 406.96 0.24L406.96 0.24Q403.76 0.24 402.00-1.48Q400.24-3.20 400.24-6.40L400.24-6.40L400.24-18.04L396.64-18.04L396.64-21.20L400.24-21.20L400.24-25.84L404.08-25.84L404.08-21.20L410.16-21.20L410.16-18.04L404.08-18.04L404.08-6.56Q404.08-4.84 404.94-3.92Q405.80-3 407.40-3L407.40-3Q409.16-3 410.40-4L410.40-4Z M446.24-21.40Q449.32-21.40 451.76-20.04Q454.20-18.68 455.58-16.24Q456.96-13.80 456.96-10.60L456.96-10.60Q456.96-7.40 455.58-4.94Q454.20-2.48 451.76-1.12Q449.32 0.24 446.24 0.24L446.24 0.24Q443.96 0.24 442.06-0.64Q440.16-1.52 438.84-3.20L438.84-3.20L438.84 7.76L435.00 7.76L435.00-21.20L438.68-21.20L438.68-17.84Q439.96-19.60 441.92-20.50Q443.88-21.40 446.24-21.40L446.24-21.40ZM445.92-3.12Q447.96-3.12 449.58-4.06Q451.20-5 452.14-6.70Q453.08-8.40 453.08-10.60L453.08-10.60Q453.08-12.80 452.14-14.50Q451.20-16.20 449.58-17.12Q447.96-18.04 445.92-18.04L445.92-18.04Q443.92-18.04 442.30-17.10Q440.68-16.16 439.74-14.48Q438.80-12.80 438.80-10.60L438.80-10.60Q438.80-8.40 439.72-6.70Q440.64-5 442.28-4.06Q443.92-3.12 445.92-3.12L445.92-3.12Z M466.28 0L466.28-29.68L470.12-29.68L470.12 0L466.28 0Z M489.16-21.40Q493.56-21.40 495.90-19.24Q498.24-17.08 498.24-12.80L498.24-12.80L498.24 0L494.60 0L494.60-2.80Q493.64-1.32 491.86-0.54Q490.08 0.24 487.64 0.24L487.64 0.24Q484.08 0.24 481.94-1.48Q479.80-3.20 479.80-6L479.80-6Q479.80-8.80 481.84-10.50Q483.88-12.20 488.32-12.20L488.32-12.20L494.40-12.20L494.40-12.96Q494.40-15.44 492.96-16.76Q491.52-18.08 488.72-18.08L488.72-18.08Q486.84-18.08 485.04-17.46Q483.24-16.84 482-15.80L482-15.80L480.40-18.68Q482.04-20 484.32-20.70Q486.60-21.40 489.16-21.40L489.16-21.40ZM488.28-2.72Q490.48-2.72 492.08-3.70Q493.68-4.68 494.40-6.48L494.40-6.48L494.40-9.44L488.48-9.44Q483.60-9.44 483.60-6.16L483.60-6.16Q483.60-4.56 484.84-3.64Q486.08-2.72 488.28-2.72L488.28-2.72Z M520.68-21.40Q524.72-21.40 527.10-19.06Q529.48-16.72 529.48-12.20L529.48-12.20L529.48 0L525.64 0L525.64-11.76Q525.64-14.84 524.16-16.40Q522.68-17.96 519.92-17.96L519.92-17.96Q516.80-17.96 515-16.14Q513.20-14.32 513.20-10.92L513.20-10.92L513.20 0L509.36 0L509.36-21.20L513.04-21.20L513.04-18Q514.20-19.64 516.18-20.52Q518.16-21.40 520.68-21.40L520.68-21.40Z M551.32-4L552.52-1.24Q551.68-0.52 550.44-0.14Q549.20 0.24 547.88 0.24L547.88 0.24Q544.68 0.24 542.92-1.48Q541.16-3.20 541.16-6.40L541.16-6.40L541.16-18.04L537.56-18.04L537.56-21.20L541.16-21.20L541.16-25.84L545-25.84L545-21.20L551.08-21.20L551.08-18.04L545-18.04L545-6.56Q545-4.84 545.86-3.92Q546.72-3 548.32-3L548.32-3Q550.08-3 551.32-4L551.32-4Z"/></g>
</svg>
</g><g opacity="1" transform="rotate(0 498.123 372.7142)">
<svg width="396.2353" height="32" x="498.123" y="372.7142" version="1.1" preserveAspectRatio="none" viewBox="0.16 -29.68 374.44 30.240000000000002">
  <g transform="matrix(1 0 0 1 0 0)" class="companyName"><path id="id-D6z1nYkh16" d="M8.76 0L8.76-21.72L0.16-21.72L0.16-28L25.24-28L25.24-21.72L16.68-21.72L16.68 0L8.76 0Z M41.96-22.04Q46-22.04 48.46-19.64Q50.92-17.24 50.92-12.40L50.92-12.40L50.92 0L43.32 0L43.32-11.16Q43.32-15.60 39.76-15.60L39.76-15.60Q37.80-15.60 36.62-14.32Q35.44-13.04 35.44-10.48L35.44-10.48L35.44 0L27.84 0L27.84-29.68L35.44-29.68L35.44-19.68Q36.68-20.84 38.36-21.44Q40.04-22.04 41.96-22.04L41.96-22.04Z M78.16-10.80Q78.16-10.72 78.04-8.92L78.04-8.92L62.28-8.92Q62.76-7.24 64.14-6.34Q65.52-5.44 67.60-5.44L67.60-5.44Q69.16-5.44 70.30-5.88Q71.44-6.32 72.60-7.32L72.60-7.32L76.60-3.16Q73.44 0.36 67.36 0.36L67.36 0.36Q63.56 0.36 60.68-1.08Q57.80-2.52 56.22-5.08Q54.64-7.64 54.64-10.88L54.64-10.88Q54.64-14.08 56.18-16.62Q57.72-19.16 60.44-20.60Q63.16-22.04 66.56-22.04L66.56-22.04Q69.80-22.04 72.44-20.70Q75.08-19.36 76.62-16.82Q78.16-14.28 78.16-10.80L78.16-10.80ZM66.60-16.64Q64.84-16.64 63.66-15.64Q62.48-14.64 62.16-12.92L62.16-12.92L71.04-12.92Q70.72-14.64 69.54-15.64Q68.36-16.64 66.60-16.64L66.60-16.64Z M107.64 0.56Q103.24 0.56 99.74-1.30Q96.24-3.16 94.24-6.48Q92.24-9.80 92.24-14L92.24-14Q92.24-18.20 94.24-21.52Q96.24-24.84 99.74-26.70Q103.24-28.56 107.64-28.56L107.64-28.56Q111.48-28.56 114.56-27.20Q117.64-25.84 119.68-23.28L119.68-23.28L114.64-18.72Q111.92-22 108.04-22L108.04-22Q105.76-22 103.98-21Q102.20-20 101.22-18.18Q100.24-16.36 100.24-14L100.24-14Q100.24-11.64 101.22-9.82Q102.20-8 103.98-7Q105.76-6 108.04-6L108.04-6Q111.92-6 114.64-9.28L114.64-9.28L119.68-4.72Q117.64-2.16 114.56-0.80Q111.48 0.56 107.64 0.56L107.64 0.56Z M136.96-22.04Q141-22.04 143.46-19.64Q145.92-17.24 145.92-12.40L145.92-12.40L145.92 0L138.32 0L138.32-11.16Q138.32-15.60 134.76-15.60L134.76-15.60Q132.80-15.60 131.62-14.32Q130.44-13.04 130.44-10.48L130.44-10.48L130.44 0L122.84 0L122.84-29.68L130.44-29.68L130.44-19.68Q131.68-20.84 133.36-21.44Q135.04-22.04 136.96-22.04L136.96-22.04Z M161.88 0.36Q158.40 0.36 155.60-1.08Q152.80-2.52 151.22-5.08Q149.64-7.64 149.64-10.88L149.64-10.88Q149.64-14.08 151.22-16.64Q152.80-19.20 155.58-20.62Q158.36-22.04 161.88-22.04L161.88-22.04Q165.40-22.04 168.20-20.62Q171-19.20 172.56-16.66Q174.12-14.12 174.12-10.88L174.12-10.88Q174.12-7.64 172.56-5.08Q171-2.52 168.20-1.08Q165.40 0.36 161.88 0.36L161.88 0.36ZM161.88-5.68Q163.88-5.68 165.16-7.06Q166.44-8.44 166.44-10.88L166.44-10.88Q166.44-13.28 165.16-14.64Q163.88-16 161.88-16L161.88-16Q159.88-16 158.60-14.64Q157.32-13.28 157.32-10.88L157.32-10.88Q157.32-8.44 158.60-7.06Q159.88-5.68 161.88-5.68L161.88-5.68Z M185.52 0.36Q182.80 0.36 180.16-0.26Q177.52-0.88 175.92-1.88L175.92-1.88L178.20-7.08Q179.68-6.16 181.72-5.62Q183.76-5.08 185.76-5.08L185.76-5.08Q187.60-5.08 188.38-5.46Q189.16-5.84 189.16-6.56L189.16-6.56Q189.16-7.28 188.22-7.58Q187.28-7.88 185.24-8.16L185.24-8.16Q182.64-8.48 180.82-9Q179-9.52 177.68-10.92Q176.36-12.32 176.36-14.84L176.36-14.84Q176.36-16.92 177.60-18.54Q178.84-20.16 181.22-21.10Q183.60-22.04 186.92-22.04L186.92-22.04Q189.28-22.04 191.60-21.56Q193.92-21.08 195.48-20.20L195.48-20.20L193.20-15.04Q190.32-16.64 186.96-16.64L186.96-16.64Q185.16-16.64 184.32-16.22Q183.48-15.80 183.48-15.12L183.48-15.12Q183.48-14.36 184.40-14.06Q185.32-13.76 187.44-13.44L187.44-13.44Q190.12-13.04 191.88-12.52Q193.64-12 194.94-10.62Q196.24-9.24 196.24-6.76L196.24-6.76Q196.24-4.72 195-3.10Q193.76-1.48 191.34-0.56Q188.92 0.36 185.52 0.36L185.52 0.36Z M221.68-10.80Q221.68-10.72 221.56-8.92L221.56-8.92L205.80-8.92Q206.28-7.24 207.66-6.34Q209.04-5.44 211.12-5.44L211.12-5.44Q212.68-5.44 213.82-5.88Q214.96-6.32 216.12-7.32L216.12-7.32L220.12-3.16Q216.96 0.36 210.88 0.36L210.88 0.36Q207.08 0.36 204.20-1.08Q201.32-2.52 199.74-5.08Q198.16-7.64 198.16-10.88L198.16-10.88Q198.16-14.08 199.70-16.62Q201.24-19.16 203.96-20.60Q206.68-22.04 210.08-22.04L210.08-22.04Q213.32-22.04 215.96-20.70Q218.60-19.36 220.14-16.82Q221.68-14.28 221.68-10.80L221.68-10.80ZM210.12-16.64Q208.36-16.64 207.18-15.64Q206.00-14.64 205.68-12.92L205.68-12.92L214.56-12.92Q214.24-14.64 213.06-15.64Q211.88-16.64 210.12-16.64L210.12-16.64Z M239.32-22.04Q243.36-22.04 245.82-19.64Q248.28-17.24 248.28-12.40L248.28-12.40L248.28 0L240.68 0L240.68-11.16Q240.68-15.60 237.12-15.60L237.12-15.60Q235.16-15.60 233.98-14.32Q232.80-13.04 232.80-10.48L232.80-10.48L232.80 0L225.20 0L225.20-21.68L232.44-21.68L232.44-19.32Q233.72-20.64 235.48-21.34Q237.24-22.04 239.32-22.04L239.32-22.04Z M277.84-28Q281.64-28 284.44-26.74Q287.24-25.48 288.76-23.14Q290.28-20.80 290.28-17.64L290.28-17.64Q290.28-14.48 288.76-12.16Q287.24-9.84 284.44-8.58Q281.64-7.32 277.84-7.32L277.84-7.32L272.96-7.32L272.96 0L265.04 0L265.04-28L277.84-28ZM277.36-13.56Q279.80-13.56 281.04-14.62Q282.28-15.68 282.28-17.64L282.28-17.64Q282.28-19.60 281.04-20.68Q279.80-21.76 277.36-21.76L277.36-21.76L272.96-21.76L272.96-13.56L277.36-13.56Z M294.16 0L294.16-29.68L301.76-29.68L301.76 0L294.16 0Z M315.92-22.04Q321.32-22.04 324.16-19.58Q327-17.12 327-12.04L327-12.04L327 0L319.92 0L319.92-2.80Q318.28 0.36 313.52 0.36L313.52 0.36Q311 0.36 309.16-0.52Q307.32-1.40 306.38-2.90Q305.44-4.40 305.44-6.32L305.44-6.32Q305.44-9.40 307.80-11.10Q310.16-12.80 315.08-12.80L315.08-12.80L319.40-12.80Q319.20-16.24 314.80-16.24L314.80-16.24Q313.24-16.24 311.64-15.74Q310.04-15.24 308.92-14.36L308.92-14.36L306.36-19.52Q308.16-20.72 310.74-21.38Q313.32-22.04 315.92-22.04L315.92-22.04ZM315.64-4.44Q316.96-4.44 317.96-5.08Q318.96-5.72 319.40-6.96L319.40-6.96L319.40-8.84L316.12-8.84Q312.80-8.84 312.80-6.64L312.80-6.64Q312.80-5.64 313.56-5.04Q314.32-4.44 315.64-4.44L315.64-4.44Z M345.92-22.04Q349.96-22.04 352.42-19.64Q354.88-17.24 354.88-12.40L354.88-12.40L354.88 0L347.28 0L347.28-11.16Q347.28-15.60 343.72-15.60L343.72-15.60Q341.76-15.60 340.58-14.32Q339.40-13.04 339.40-10.48L339.40-10.48L339.40 0L331.80 0L331.80-21.68L339.04-21.68L339.04-19.32Q340.32-20.64 342.08-21.34Q343.84-22.04 345.92-22.04L345.92-22.04Z M372.72-6.20L374.60-0.88Q373.64-0.28 372.26 0.04Q370.88 0.36 369.32 0.36L369.32 0.36Q365.08 0.36 362.80-1.72Q360.52-3.80 360.52-7.92L360.52-7.92L360.52-15.20L357.36-15.20L357.36-20.88L360.52-20.88L360.52-26.52L368.12-26.52L368.12-20.88L373.08-20.88L373.08-15.20L368.12-15.20L368.12-8Q368.12-6.84 368.74-6.18Q369.36-5.52 370.40-5.52L370.40-5.52Q371.72-5.52 372.72-6.20L372.72-6.20Z"/></g>
</svg>
</g></svg></svg>